<?xml version="1.0" encoding="UTF-8" standalone="no"?>
<!-- Created with Inkscape (http://www.inkscape.org/) -->

<svg
   width="500"
   height="500"
   viewBox="0 0 132.29166 132.29167"
   version="1.1"
   id="svg1"
   inkscape:version="1.4.2 (ebf0e940d0, 2025-05-08)"
   sodipodi:docname="logo.svg"
   xml:space="preserve"
   xmlns:inkscape="http://www.inkscape.org/namespaces/inkscape"
   xmlns:sodipodi="http://sodipodi.sourceforge.net/DTD/sodipodi-0.dtd"
   xmlns="http://www.w3.org/2000/svg"
   xmlns:svg="http://www.w3.org/2000/svg"><sodipodi:namedview
     id="namedview1"
     pagecolor="#ffffff"
     bordercolor="#000000"
     borderopacity="0.25"
     inkscape:showpageshadow="2"
     inkscape:pageopacity="0.0"
     inkscape:pagecheckerboard="0"
     inkscape:deskcolor="#d1d1d1"
     inkscape:document-units="mm"
     inkscape:zoom="1.1290139"
     inkscape:cx="201.94614"
     inkscape:cy="226.30368"
     inkscape:window-width="1586"
     inkscape:window-height="860"
     inkscape:window-x="0"
     inkscape:window-y="0"
     inkscape:window-maximized="1"
     inkscape:current-layer="layer1" /><defs
     id="defs1"><linearGradient
       id="swatch4"
       inkscape:swatch="solid"><stop
         style="stop-color:#f20000;stop-opacity:0.68233699;"
         offset="0"
         id="stop4" /></linearGradient></defs><g
     id="g85"><path
       style="fill:none;fill-opacity:1;fill-rule:nonzero;stroke:#c8008a;stroke-width:0.6;stroke-dasharray:none;stroke-opacity:1"
       d="m 60.197678,52.962392 c 0.0021,0.116215 0.06753,0.201633 0.116525,0.299632 0.02982,0.05964 0.05351,0.123664 0.08323,0.183108 0.0056,0.01119 0.04579,0.06247 0.04994,0.08323 0.0033,0.01633 -0.0033,0.03362 0,0.04994 0.0182,0.09104 0.07583,0.184952 0.116523,0.266338 0.01849,0.03696 0.02429,0.08232 0.04994,0.116525 0.0094,0.01257 0.02521,0.01984 0.03329,0.03329 0.02842,0.04736 0.04597,0.114933 0.06658,0.16646 0.01699,0.04248 0.09498,0.220964 0.116525,0.249695 0.04645,0.06193 0.02585,0.0019 0.06658,0.08323 0.04439,0.08878 -0.01934,0.01262 0.04994,0.116523 0.0087,0.01307 0.02521,0.01984 0.03329,0.03329 0.009,0.01505 0.0069,0.03534 0.01664,0.04994 0.05413,0.0812 0.139005,0.140462 0.199756,0.216401 0.05393,0.06741 0.09956,0.146044 0.149815,0.2164 0.02774,0.03884 0.05955,0.07508 0.08323,0.116522 0.0087,0.01524 0.0076,0.03489 0.01664,0.04994 0.0081,0.01347 0.0222,0.0222 0.03329,0.03329 0.01664,0.0222 0.03617,0.0425 0.04994,0.06658 0.0087,0.01524 0.0076,0.03489 0.01664,0.04994 0.04333,0.07222 0.131602,0.13108 0.183108,0.199755 0.07104,0.09472 0.141705,0.189617 0.2164,0.282985 0.04782,0.05977 0.12409,0.102902 0.166463,0.166463 0.0069,0.01032 0.0079,0.02453 0.01664,0.03329 0.0088,0.0088 0.02453,0.0079 0.03329,0.01664 0.0088,0.0088 0.0079,0.02453 0.01664,0.03329 0.0088,0.0088 0.02297,0.0098 0.03329,0.01664 0.07043,0.04695 0.112684,0.136157 0.183108,0.183107 0.03727,0.02484 0.142996,0.08651 0.18311,0.09988 0.02748,0.0092 0.05697,0.0158 0.08323,0.03329 0.03042,0.02027 0.05746,0.05746 0.08323,0.08323 0.09402,0.05435 0.154856,0.04997 0.24974,0.04997"
       id="path79" /></g><g
     inkscape:label="Layer 1"
     inkscape:groupmode="layer"
     id="layer1"><ellipse
       style="fill:none;fill-opacity:0.924556;fill-rule:nonzero;stroke:#000000;stroke-width:0.908381;stroke-dasharray:none;stroke-opacity:1"
       id="path10"
       cx="66.360466"
       cy="65.054077"
       rx="65.586098"
       ry="63.500965" /><path
       id="path12"
       style="fill:#000000;stroke:#c8008a;stroke-width:0.531437;stroke-dasharray:none;stroke-opacity:1"
       d="m 45.068595,19.993459 c -0.252814,0.0725 -0.592069,0.219054 -0.754372,0.325652 -0.162294,0.106602 -0.44231,0.374654 -0.621097,0.595882 -0.238056,0.294485 -0.376808,0.541291 -0.518992,0.920799 -0.106748,0.285109 -0.248971,0.795826 -0.316047,1.13525 -0.06545,0.331531 -0.151358,0.609791 -0.191058,0.628468 l -3.73e-4,6.39e-4 -6.59e-4,-3.64e-4 c -0.03845,0.0064 -0.375251,0.06072 -0.749525,0.120526 -0.374272,0.05982 -0.876386,0.189259 -1.115004,0.28751 -0.238544,0.09828 -0.563703,0.288536 -0.722397,0.423361 -0.222085,0.188701 -0.319923,0.329531 -0.424982,0.611014 -0.07566,0.200849 -0.131136,0.457216 -0.125236,0.568862 0.0059,0.111654 -0.0073,0.22734 -0.0293,0.258023 l -8.56e-4,7.67e-4 -3.75e-4,6.4e-4 1.42e-4,5.02e-4 c -0.01728,0.03565 0.118778,0.249555 0.305115,0.480571 0.189305,0.23469 0.456126,0.516017 0.592953,0.624399 0.195272,0.154676 0.393963,0.247123 0.923456,0.431687 0.371084,0.129296 0.748052,0.251805 0.838027,0.27219 0.09006,0.02041 0.180739,0.0011 0.201388,-0.0429 0.03106,-0.06628 -0.02646,-0.09997 -0.331196,-0.195364 -0.202549,-0.06338 -0.604965,-0.226677 -0.895132,-0.362662 -0.327007,-0.153266 -0.641162,-0.344067 -0.825851,-0.502462 -0.163885,-0.140543 -0.35161,-0.340418 -0.416882,-0.444308 -0.0653,-0.103895 -0.131203,-0.289029 -0.146919,-0.411113 -0.0157,-0.122119 -0.0067,-0.325637 0.02103,-0.452648 0.02819,-0.128806 0.148822,-0.351625 0.273345,-0.503726 0.122439,-0.150131 0.350902,-0.346185 0.507946,-0.434683 0.157082,-0.08847 0.467176,-0.21255 0.689477,-0.276533 0.222286,-0.06395 0.624154,-0.152559 0.892807,-0.196465 0.268645,-0.04396 0.517008,-0.06687 0.551879,-0.05058 0.03485,0.01619 0.05079,0.194312 0.03564,0.396017 -0.01497,0.201777 -6.87e-4,0.682602 0.03098,1.06809 0.03167,0.385488 0.125935,0.994203 0.210383,1.35245 0.08455,0.358223 0.238744,0.842155 0.342003,1.07578 0.103401,0.233919 0.200946,0.63182 0.217837,0.885088 l 0.03141,0.459699 -0.665428,0.194634 c -0.365888,0.107236 -1.023538,0.326001 -1.461729,0.48562 -0.438191,0.159629 -1.145555,0.455128 -1.571539,0.656717 -0.425962,0.201607 -0.980256,0.4844 -1.231768,0.628703 -0.251507,0.144303 -0.74746,0.45622 -1.101577,0.693222 -0.354102,0.237011 -0.851478,0.594459 -1.105854,0.794123 -0.254305,0.199704 -0.677924,0.559915 -0.940939,0.800854 -0.262984,0.240953 -0.66449,0.643132 -0.892602,0.893663 -0.228114,0.250529 -0.569282,0.671801 -0.757609,0.935871 -0.18833,0.264069 -0.437973,0.688001 -0.555735,0.941916 -0.117713,0.253936 -0.259711,0.663615 -0.315169,0.910147 -0.0553,0.246605 -0.101269,0.615581 -0.102024,0.820436 -0.0012,0.204797 0.02607,0.484801 0.06113,0.622182 0.03507,0.137382 0.116145,0.284948 0.180017,0.327875 0.06394,0.0429 0.175787,0.05249 0.248797,0.02104 0.08455,-0.03652 0.209357,-0.221592 0.344675,-0.510336 0.11668,-0.249 0.347683,-0.61904 0.512976,-0.82213 0.165291,-0.20309 0.458736,-0.468753 0.652622,-0.590266 0.208979,-0.130953 0.583802,-0.269776 0.920199,-0.34127 0.312099,-0.06641 0.82477,-0.108351 1.139366,-0.09286 0.314603,0.01553 0.832483,0.08549 1.151087,0.155308 0.481508,0.105467 0.763766,0.212102 1.670164,0.631692 0.827849,0.383226 1.291637,0.634075 1.925238,1.04094 0.459044,0.294782 1.422822,0.940567 2.142202,1.435 0.719375,0.494441 1.719836,1.205524 2.223158,1.58059 0.503301,0.375066 0.933419,0.719989 0.955739,0.766584 0.02235,0.04656 -0.0011,0.125462 -0.05226,0.174628 -0.0513,0.04909 -0.152405,0.08225 -0.224282,0.07381 -0.07171,-0.0084 -0.303713,-0.0687 -0.516333,-0.13415 -0.212615,-0.06546 -1.868544,-0.780401 -3.679714,-1.588144 -1.811173,-0.807745 -3.603089,-1.579346 -3.982068,-1.714621 -0.378962,-0.135266 -0.948358,-0.307523 -1.265218,-0.383188 -0.316855,-0.07566 -0.797546,-0.153132 -1.068043,-0.171513 -0.290328,-0.01975 -0.691068,0.01804 -0.978258,0.09197 -0.286236,0.07369 -0.638096,0.231021 -0.854387,0.38197 -0.20224,0.141084 -0.484381,0.384476 -0.62769,0.541019 -0.143281,0.156563 -0.411075,0.522971 -0.594644,0.8137 -0.183596,0.290707 -0.362228,0.635658 -0.397105,0.766976 -0.05518,0.207448 -0.0874,0.238437 -0.245693,0.235895 -0.100266,-0.0016 -0.301955,0.05123 -0.448894,0.116944 -0.146834,0.06617 -0.498724,0.333964 -0.78174,0.594486 -0.28302,0.260518 -0.641265,0.556918 -0.796337,0.658771 -0.155134,0.101803 -0.575875,0.327267 -0.934527,0.500938 -0.358638,0.173674 -1.090561,0.437034 -1.626648,0.585127 -0.536096,0.148118 -1.606892,0.372283 -2.379822,0.497931 -0.772945,0.125663 -1.607221,0.290664 -1.853797,0.367421 -0.246591,0.07675 -0.614389,0.2561 -0.817173,0.397934 -0.289755,0.202698 -0.416036,0.346228 -0.591359,0.669924 -0.203853,0.376372 -0.219502,0.449478 -0.178287,0.854786 0.02673,0.259796 0.122887,0.578453 0.231759,0.769212 0.10218,0.179119 0.279772,0.441745 0.395067,0.583317 0.115282,0.141584 0.399769,0.422918 0.632024,0.62531 0.232235,0.20239 0.610091,0.470767 0.838918,0.596044 0.330577,0.180992 0.450133,0.283077 0.584673,0.496647 0.09309,0.147803 0.182465,0.401584 0.197956,0.564677 0.01546,0.163143 -0.0014,0.359343 -0.03738,0.435974 -0.0359,0.07664 -0.205406,0.226395 -0.376567,0.332256 -0.171179,0.10584 -0.543205,0.255501 -0.826591,0.333039 -0.283387,0.07752 -0.678921,0.213457 -0.879068,0.302267 -0.200097,0.08881 -0.493371,0.264611 -0.651806,0.390524 -0.205521,0.163412 -0.344032,0.344786 -0.483486,0.633618 -0.158181,0.328916 -0.189356,0.475924 -0.163746,0.782425 0.01758,0.207585 0.02861,0.519846 0.02492,0.694387 -0.0037,0.174536 0.0669,0.498227 0.157173,0.718991 0.09026,0.220811 0.147988,0.444947 0.128175,0.498076 -0.01892,0.05352 -0.06511,0.142166 -0.09983,0.198634 -0.03474,0.05646 -0.26914,0.185184 -0.520991,0.28609 -0.251703,0.100977 -0.543035,0.261055 -0.647303,0.355351 -0.11883,0.107435 -0.211291,0.261542 -0.247949,0.412832 -0.03227,0.132742 -0.04549,0.355651 -0.02951,0.495353 0.01607,0.13972 0.109864,0.394005 0.207945,0.564711 0.09815,0.170699 0.280221,0.391822 0.40475,0.49176 0.124536,0.09996 0.422068,0.27231 0.661445,0.383432 l 0.435797,0.202533 -0.04612,0.210199 c -0.02512,0.115644 -0.11988,0.314346 -0.211094,0.441295 -0.09057,0.127232 -0.574303,0.613404 -1.075089,1.080356 -0.548004,0.510951 -1.01753,1.0089 -1.179085,1.250438 -0.174539,0.260925 -0.299277,0.525233 -0.355986,0.755478 -0.04849,0.194528 -0.09241,0.475041 -0.09712,0.62338 -0.0048,0.148355 0.03664,0.451066 0.09149,0.672867 0.0549,0.22182 0.217965,0.630416 0.362521,0.908536 0.144553,0.278112 0.425072,0.705731 0.623208,0.950133 0.198123,0.244404 0.580366,0.663133 0.84939,0.930285 0.269022,0.26715 0.73582,0.708095 1.037487,0.97991 0.301646,0.271817 0.811392,0.689496 1.133192,0.927974 0.321821,0.238476 0.907417,0.634972 1.300761,0.881152 0.513356,0.321278 1.097787,0.624115 2.070767,1.073328 0.89056,0.411174 1.664853,0.730357 2.25791,0.930693 0.496496,0.167717 1.331985,0.431318 1.856823,0.585712 0.524832,0.154408 1.521169,0.423965 2.213248,0.599094 0.692067,0.175103 1.734042,0.421751 2.316366,0.547878 0.582328,0.126119 1.433824,0.290849 1.891947,0.366041 l 0.833065,0.136542 -0.120326,0.377736 c -0.06639,0.20773 -0.156009,0.63931 -0.198693,0.959448 -0.04266,0.32017 -0.08088,0.867175 -0.08443,1.215335 -0.0035,0.348199 0.05342,1.373818 0.126651,2.279098 0.07323,0.905276 0.151226,1.996169 0.173602,2.424044 0.02239,0.427886 0.06533,1.14555 0.09523,1.595072 0.0299,0.449533 0.162994,2.258869 0.295331,4.020681 0.132324,1.761799 0.289546,4.032215 0.349199,5.046001 0.05964,1.013765 0.143175,2.21626 0.186355,2.671938 0.04317,0.455698 0.144279,1.12199 0.22373,1.480471 0.0795,0.358464 0.138459,0.66401 0.131462,0.678929 l 1.42e-4,5.02e-4 -3.75e-4,6.38e-4 -5.16e-4,1.38e-4 1.41e-4,5.01e-4 -3.74e-4,6.4e-4 -3.74e-4,6.39e-4 -5.16e-4,1.37e-4 -3.75e-4,6.39e-4 -6.57e-4,-3.63e-4 -8.57e-4,7.67e-4 c -2.77e-4,1e-4 -0.0014,3.45e-4 -0.0016,4.25e-4 -0.01846,0.003 -0.07706,-0.02798 -0.141742,-0.076 C 38.846626,95.977987 38.142274,95.568249 37.35585,95.12249 36.174812,94.452847 35.495493,94.111818 33.450525,93.158773 31.839821,92.407341 30.686999,91.900627 30.149676,91.70691 29.695537,91.543255 28.84075,91.258539 28.250627,91.073675 27.66049,90.88881 26.76506,90.637201 26.260544,90.514858 25.756031,90.392466 24.806392,90.201066 24.150708,90.08988 c -0.655659,-0.111223 -1.569043,-0.238511 -2.030529,-0.283264 -0.46151,-0.04455 -1.267808,-0.101282 -1.791777,-0.124732 -0.523981,-0.02345 -1.242558,-0.04154 -1.596788,-0.04082 -0.354212,7.41e-4 -1.175017,0.03146 -1.823889,0.06825 -0.648902,0.03676 -1.570637,0.114594 -2.04785,0.172708 -0.477206,0.05813 -1.262072,0.171452 -1.744384,0.251974 -0.02501,0.0041 -0.0512,0.0087 -0.0783,0.01336 0.03029,0.05639 0.05887,0.113677 0.08662,0.171581 0.03009,-0.0051 0.05973,-0.01018 0.0884,-0.0149 0.635775,-0.105952 1.632803,-0.24203 2.21531,-0.302548 0.58251,-0.06047 1.570746,-0.130233 2.196037,-0.154509 0.625322,-0.02427 1.61282,-0.02977 2.195051,-0.01242 0.58223,0.01738 1.492821,0.07141 2.022859,0.120296 0.530038,0.04903 1.418653,0.16069 1.974716,0.24853 0.556064,0.08774 1.436142,0.256161 1.955838,0.374354 0.519737,0.118087 1.264835,0.305019 1.65567,0.415002 0.390789,0.110017 1.242379,0.377857 1.89234,0.595658 1.075996,0.360448 1.426874,0.509793 3.923005,1.668351 2.136301,0.991524 2.986624,1.411866 3.852586,1.904441 0.611225,0.347654 1.321843,0.759446 1.579309,0.915292 l 0.468547,0.283319 0.03495,-0.171091 c -0.0062,-0.04408 -0.01164,-0.08254 -0.01656,-0.11584 0.0096,-0.01437 0.0081,-0.07249 0.01495,-0.08272 l -1.42e-4,-5.02e-4 5.16e-4,-1.37e-4 5.16e-4,-1.38e-4 5.15e-4,-1.38e-4 5.17e-4,-1.36e-4 6.56e-4,3.64e-4 5.16e-4,-1.38e-4 1.41e-4,5.02e-4 6.57e-4,3.63e-4 c 0.01189,0.01061 0.03954,0.09906 0.112149,0.388028 -0.0082,-8.46e-4 -0.0151,7.9e-4 -0.01849,0.0032 l -3.75e-4,6.4e-4 -5.16e-4,1.37e-4 -3.74e-4,6.39e-4 -3.74e-4,6.4e-4 1.41e-4,5.01e-4 -3.74e-4,6.39e-4 1.42e-4,5.01e-4 1.4e-4,5.02e-4 -5.15e-4,1.38e-4 1.41e-4,5.01e-4 c -1.15e-4,0.02168 0.06425,0.08626 0.248918,0.222149 0.198091,0.04705 0.15521,0.04998 0.359695,0.182375 0.221569,0.127651 1.408317,0.863178 2.636952,1.634222 1.228633,0.771055 2.275029,1.448177 2.324931,1.504928 0.03761,0.04271 0.08645,0.113868 0.123348,0.177968 0.08617,0.0599 0.170668,0.12206 0.25239,0.18725 -3.86e-4,-0.0101 -0.0013,-0.0197 -0.0023,-0.0296 -0.01444,-0.16252 -0.08901,-0.288018 -0.264733,-0.445504 -0.134532,-0.120645 -0.957616,-0.667832 -1.828753,-1.216032 -0.871088,-0.548263 -2.020313,-1.262162 -2.554107,-1.586201 -0.458656,-0.278409 -0.891603,-0.544853 -1.053141,-0.647871 0.03578,0.06377 0.07469,0.133657 0.09453,0.166236 -0.04385,-0.04043 -0.18714,-0.116862 -0.272458,-0.146312 0.02091,-0.03156 0.04566,-0.08182 0.0665,-0.11425 -0.07542,-0.107309 -0.15343,-0.328872 -0.232793,-0.662705 -0.08169,-0.343383 -0.192,-1.025612 -0.245164,-1.5152 -0.05314,-0.489596 -0.136416,-1.591462 -0.185078,-2.449027 -0.04866,-0.857575 -0.138763,-2.265557 -0.199802,-3.128874 -0.06104,-0.863317 -0.187983,-2.588905 -0.281676,-3.834504 -0.0937,-1.245602 -0.214639,-2.991999 -0.268744,-3.88109 -0.0541,-0.889093 -0.146583,-2.191195 -0.206156,-2.893685 -0.05956,-0.702488 -0.105473,-1.565847 -0.101704,-1.919057 0.0038,-0.353209 0.03823,-0.902257 0.07669,-1.219202 0.03843,-0.316959 0.131935,-0.756366 0.208145,-0.977067 l 0.139103,-0.401615 0.717707,0.07939 c 0.394578,0.04347 1.166986,0.100056 1.716829,0.126377 0.549862,0.02633 1.349048,0.03814 1.776124,0.0259 0.427075,-0.01226 1.164826,-0.06476 1.638938,-0.116556 0.474134,-0.05179 1.214741,-0.182229 1.646448,-0.29058 0.431697,-0.108394 1.083255,-0.321631 1.447345,-0.473697 0.110873,-0.04631 0.243947,-0.106663 0.385686,-0.173987 0.07718,-0.111483 0.153649,-0.223197 0.230556,-0.334857 -0.0085,0.0043 -0.01678,0.0089 -0.02513,0.01316 -0.355036,0.180071 -0.879008,0.411863 -1.164472,0.515316 -0.285467,0.103455 -0.747473,0.24082 -1.027416,0.305141 -0.27995,0.06429 -0.763146,0.156236 -1.07309,0.204073 -0.309949,0.04781 -0.991716,0.111803 -1.514706,0.14222 -0.522973,0.03043 -1.344303,0.0455 -1.82534,0.03358 -0.358213,-0.0089 -0.898741,-0.03813 -1.361522,-0.07172 -0.07946,0.02671 -0.186019,0.02652 -0.313845,-0.01772 -0.0086,-0.0029 -0.01725,-0.0058 -0.02576,-0.0088 -0.03393,-0.0029 -0.06665,-0.0059 -0.09841,-0.0089 -0.156292,-0.01434 -0.306027,-0.02862 -0.43934,-0.04197 -0.09036,0.05684 -0.236848,0.06543 -0.411876,-0.02124 -0.02001,-0.0099 -0.03992,-0.02004 -0.05961,-0.03048 -0.03719,-0.0049 -0.06006,-0.0088 -0.06577,-0.01105 -0.0091,-0.0036 -0.01334,-0.01536 -0.0137,-0.03302 -0.06572,-0.03759 -0.130531,-0.07768 -0.19461,-0.11799 -0.01063,-0.0034 -0.02116,-0.0068 -0.03177,-0.01041 l -0.0831,0.114367 -1.072793,-0.180492 c -0.590009,-0.0991 -1.630752,-0.308379 -2.313023,-0.465186 -0.682255,-0.15681 -1.758331,-0.421139 -2.391368,-0.587744 -0.633048,-0.166613 -1.638317,-0.455052 -2.233425,-0.64117 -0.59511,-0.186112 -1.435774,-0.472501 -1.868096,-0.635553 -0.432978,-0.163611 -1.14254,-0.462421 -1.57856,-0.664738 -0.436016,-0.202808 -1.161987,-0.584177 -1.613179,-0.848563 -0.451164,-0.264407 -1.128946,-0.709313 -1.506801,-0.988546 -0.377876,-0.279224 -0.942319,-0.736232 -1.253799,-1.01554 -0.31148,-0.27931 -0.842168,-0.796869 -1.179727,-1.150145 -0.33756,-0.353273 -0.748015,-0.836466 -0.912005,-1.073754 -0.163995,-0.237292 -0.382897,-0.630678 -0.48653,-0.8744 -0.103626,-0.243717 -0.215141,-0.631399 -0.246733,-0.861747 -0.03204,-0.230205 -0.01843,-0.599998 0.03063,-0.821899 0.07119,-0.321948 0.148365,-0.486179 0.381521,-0.812435 0.160726,-0.224875 0.717296,-0.805958 1.236393,-1.291059 0.83435,-0.77975 0.966484,-0.930447 1.140418,-1.301068 l 0.196817,-0.419155 0.330387,0.04297 c 0.181712,0.02388 0.551205,0.02432 0.820836,6.75e-4 0.269641,-0.02362 1.011608,-0.167325 1.648898,-0.319274 0.637269,-0.151973 1.376545,-0.292141 1.643231,-0.311832 0.355785,-0.02626 0.500975,-0.06939 0.543995,-0.161182 0.03224,-0.06881 0.02292,-0.190545 -0.02029,-0.270688 -0.04338,-0.08021 -0.180051,-0.19435 -0.30374,-0.253373 l -0.224848,-0.107233 0.299952,0.04515 c 0.164645,0.02485 0.355889,0.02063 0.425954,-0.0095 0.0701,-0.03016 0.159716,-0.123029 0.198643,-0.206098 0.04775,-0.101908 0.02962,-0.205272 -0.05487,-0.318635 C 27.467519,56.54383 27.359835,56.486271 26.818839,56.284996 26.471869,56.155913 25.980523,55.952872 25.726791,55.833539 25.386862,55.673688 25.2083,55.55258 25.048268,55.373772 24.928787,55.240286 24.651654,54.788936 24.432028,54.371632 24.212419,53.954333 23.910915,53.48704 23.76213,53.332565 23.613345,53.1781 23.367202,52.993777 23.21528,52.9229 c -0.151895,-0.07086 -0.371984,-0.141818 -0.489114,-0.157584 -0.117068,-0.01568 -0.322623,-0.0033 -0.456791,0.02793 -0.134191,0.03118 -0.296978,0.120057 -0.361922,0.197309 -0.08891,0.105773 -0.130227,0.115856 -0.165312,0.04302 -0.02718,-0.05666 0.03613,-0.273582 0.150162,-0.517805 0.176311,-0.376218 0.242662,-0.450704 0.63155,-0.710295 0.265761,-0.177353 0.671674,-0.358736 1.045306,-0.467914 0.335946,-0.0982 0.743273,-0.23781 0.904714,-0.309645 0.161386,-0.07186 0.375031,-0.217118 0.474979,-0.323437 0.128898,-0.13725 0.190069,-0.262835 0.211152,-0.433222 0.01602,-0.132185 -0.01247,-0.383825 -0.06367,-0.55841 -0.05124,-0.174589 -0.130261,-0.33469 -0.175218,-0.356117 -0.01772,-0.0085 -0.02842,-0.01668 -0.0314,-0.02291 l -1.42e-4,-5.02e-4 -1.41e-4,-5.01e-4 -1.41e-4,-5.01e-4 c -4.6e-5,-2.8e-4 -8e-6,-0.0017 -5.8e-5,-0.0022 l -1.42e-4,-5.02e-4 3.75e-4,-6.4e-4 -1.42e-4,-5.01e-4 3.74e-4,-6.38e-4 5.16e-4,-1.38e-4 3.74e-4,-6.39e-4 -1.4e-4,-5.02e-4 5.15e-4,-1.38e-4 3.74e-4,-6.39e-4 -1.41e-4,-5e-4 5.15e-4,-1.38e-4 c 0.0079,-0.0072 0.03199,-0.01218 0.0714,-0.01423 0.06811,-0.0035 0.187093,0.02232 0.264698,0.05779 0.07766,0.0355 0.266666,0.03117 0.419714,-0.01 0.152987,-0.04124 0.360135,-0.16634 0.460733,-0.277579 0.100524,-0.111267 0.206201,-0.25027 0.233873,-0.309318 0.02767,-0.05907 0.01053,-0.212494 -0.03773,-0.340457 -0.05122,-0.135683 -0.215245,-0.340425 -0.393072,-0.491638 -0.167767,-0.142655 -0.530681,-0.380094 -0.8067,-0.526979 -0.39139,-0.20827 -0.567321,-0.271979 -0.799404,-0.290575 -0.163605,-0.01308 -0.358812,0.02093 -0.433513,0.07511 -0.07477,0.05411 -0.16177,0.153923 -0.193978,0.222651 -0.0322,0.06874 -0.0295,0.238741 0.0062,0.377988 0.0356,0.139247 0.181481,0.419797 0.324766,0.623089 0.122014,0.173126 0.197328,0.307404 0.188363,0.329963 l 1.41e-4,5.02e-4 -8.57e-4,7.68e-4 -5.16e-4,1.37e-4 -3.73e-4,6.4e-4 -9.98e-4,2.65e-4 -5.16e-4,1.38e-4 -5.15e-4,1.37e-4 -5.16e-4,1.38e-4 -5.16e-4,1.38e-4 -6.58e-4,-3.65e-4 -5.14e-4,1.37e-4 -5.16e-4,1.38e-4 c -0.0016,-3.06e-4 -0.0034,-0.0013 -0.0056,-0.0017 -0.04631,-0.02151 -0.246471,-0.16171 -0.444662,-0.310716 -0.198214,-0.148999 -0.516363,-0.436214 -0.706804,-0.63881 -0.190441,-0.202598 -0.436061,-0.545261 -0.546042,-0.760933 -0.109987,-0.215655 -0.217054,-0.533113 -0.237819,-0.706121 -0.02875,-0.238775 0.0046,-0.407481 0.139465,-0.69938 0.152294,-0.329502 0.235106,-0.42346 0.578199,-0.655629 0.281555,-0.190492 0.606044,-0.323202 1.091863,-0.446351 0.380155,-0.09632 1.07969,-0.232275 1.554599,-0.301688 0.474894,-0.06941 1.327204,-0.237319 1.89361,-0.373719 0.566406,-0.136402 1.350734,-0.381514 1.743581,-0.544031 0.39285,-0.162518 0.931122,-0.434146 1.196015,-0.604074 0.264948,-0.169915 0.677357,-0.49435 0.916467,-0.720453 0.239017,-0.226141 0.561998,-0.482599 0.717047,-0.570229 0.15505,-0.08765 0.309993,-0.146349 0.344794,-0.130195 0.03486,0.01619 0.08284,0.04607 0.106735,0.06592 0.02398,0.01971 0.04694,0.197782 0.05121,0.396181 0.0043,0.198482 0.06483,0.485005 0.1345,0.636597 0.06978,0.151587 0.253557,0.400486 0.408628,0.55274 0.19505,0.191501 0.461519,0.369667 0.864457,0.578452 0.329809,0.170812 1.059839,0.475146 1.682544,0.701191 0.604846,0.21962 1.509801,0.531727 2.010848,0.69349 0.501067,0.161771 1.297817,0.384561 1.770919,0.495366 0.473108,0.110805 1.17118,0.239472 1.551614,0.285816 0.38042,0.04629 0.889952,0.08638 1.131913,0.08924 0.241957,0.0028 0.50969,-0.008 0.594781,-0.02427 0.08512,-0.01632 0.183805,-0.09361 0.219559,-0.17123 0.03572,-0.07763 0.05536,-0.177997 0.04414,-0.223149 -0.01146,-0.04523 -0.07227,-0.140267 -0.135545,-0.211388 -0.06689,-0.07513 -0.424822,-0.273112 -0.853954,-0.472321 -0.406371,-0.188625 -1.069253,-0.449998 -1.472786,-0.580692 -0.404516,-0.129428 -1.282291,-0.389536 -1.95267,-0.575224 -0.670362,-0.185684 -1.571995,-0.457415 -2.003321,-0.603822 -0.431307,-0.146406 -1.027481,-0.379176 -1.325285,-0.517628 -0.297806,-0.138454 -0.821457,-0.427368 -1.163399,-0.641667 -0.34193,-0.214299 -0.758379,-0.44607 -0.925254,-0.514792 l -0.303479,-0.124561 0.288618,-0.589225 c 0.158115,-0.324256 0.421271,-0.749071 0.583169,-0.944915 0.161898,-0.195846 0.480128,-0.486542 0.707522,-0.645343 0.247799,-0.173127 0.591837,-0.334369 0.85844,-0.403004 0.249476,-0.06421 0.665044,-0.100026 0.946848,-0.08145 0.276309,0.01823 0.713382,0.08488 0.971489,0.147639 0.258103,0.06281 0.735156,0.203728 1.059786,0.313379 0.324643,0.109618 2.055993,0.855187 3.847762,1.657133 1.791788,0.801948 3.537245,1.552459 3.878494,1.667812 0.34123,0.115337 0.707044,0.20476 0.812838,0.198557 0.105824,-0.0062 0.235263,-0.05885 0.288013,-0.117219 0.05278,-0.05841 0.08772,-0.169855 0.07584,-0.248322 -0.01099,-0.07804 -0.143646,-0.245839 -0.294705,-0.372799 -0.151103,-0.126984 -0.665506,-0.515735 -1.143895,-0.863644 -0.478391,-0.347903 -1.349045,-0.961347 -1.934662,-1.363598 -0.585631,-0.40227 -1.399534,-0.945743 -1.807916,-1.207026 -0.408392,-0.261275 -1.080889,-0.660766 -1.494615,-0.888255 -0.496617,-0.273095 -0.979257,-0.496534 -1.420772,-0.657726 -0.367826,-0.134267 -0.913359,-0.29722 -1.212706,-0.362135 -0.299359,-0.06493 -0.796084,-0.125533 -1.1035,-0.134019 -0.307415,-0.0085 -0.824337,0.04537 -1.149134,0.119191 -0.34338,0.07804 -0.721232,0.220759 -0.902047,0.340751 -0.171064,0.113479 -0.425632,0.331098 -0.566229,0.483653 -0.140573,0.15256 -0.40298,0.543636 -0.58336,0.869471 -0.21616,0.390812 -0.349805,0.575765 -0.392193,0.542415 -0.03536,-0.02778 -0.08518,-0.252708 -0.110168,-0.499103 -0.02517,-0.246466 7.26e-4,-0.67794 0.05691,-0.958862 0.07984,-0.399101 0.185276,-0.667343 0.483603,-1.227367 0.214235,-0.402015 0.547949,-0.916721 0.760161,-1.172744 0.208054,-0.25103 0.648988,-0.715131 0.979192,-1.031066 0.330112,-0.315976 0.859611,-0.780311 1.177398,-1.032131 0.31787,-0.251778 0.832044,-0.626468 1.142718,-0.83253 0.310721,-0.20599 0.8209,-0.519245 1.133045,-0.695678 0.312126,-0.176438 0.856385,-0.454662 1.209691,-0.618503 0.353295,-0.163839 0.937043,-0.412355 1.297624,-0.552427 0.360578,-0.140069 1.035474,-0.368188 1.499504,-0.507017 l 0.84377,-0.252411 0.117451,0.186551 c 0.06459,0.102744 0.217553,0.264008 0.340413,0.357918 0.141876,0.108456 0.292057,0.179597 0.41046,0.195267 0.10248,0.01367 0.224199,-0.0068 0.270472,-0.04567 0.04625,-0.03875 0.110672,-0.128645 0.143917,-0.199599 0.03325,-0.07094 0.01904,-0.208626 -0.03202,-0.30639 -0.06083,-0.1165 -0.182332,-0.219661 -0.353188,-0.298971 -0.146468,-0.06799 -0.377945,-0.116659 -0.528779,-0.111419 l -0.268457,0.0096 -0.03736,-0.447328 c -0.02083,-0.24576 -0.121766,-0.645748 -0.224033,-0.889368 -0.102273,-0.243621 -0.23664,-0.641364 -0.298888,-0.883436 -0.06221,-0.242084 -0.149224,-0.679021 -0.192859,-0.971555 -0.04355,-0.292488 -0.08339,-0.789018 -0.08863,-1.103415 -0.0052,-0.314377 0.0049,-0.652348 0.02242,-0.750686 0.02912,-0.163097 0.107674,-0.198795 0.886573,-0.409425 0.470004,-0.126848 1.104029,-0.351076 1.409417,-0.498101 0.305409,-0.146995 0.791138,-0.430414 1.079053,-0.629519 0.287866,-0.199121 0.640926,-0.490267 0.784533,-0.647536 0.161006,-0.176456 0.282429,-0.374477 0.316617,-0.517417 0.03059,-0.127372 0.02465,-0.322061 -0.01248,-0.431853 -0.03728,-0.109844 -0.142258,-0.282912 -0.233605,-0.384232 -0.09132,-0.101299 -0.315646,-0.252806 -0.498211,-0.337426 -0.197005,-0.09131 -0.494413,-0.169387 -0.732252,-0.191996 l -5.17e-4,1.37e-4 c -0.242122,-0.02283 -0.581958,0.01415 -0.85964,0.0938 z m -5.664394,76.28222 c 0.0183,0.0257 0.03707,0.04506 0.05504,0.0576 0.01079,0.0074 0.0299,0.01986 0.05638,0.03674 -0.03643,-0.0649 -0.06957,-0.123501 -0.07525,-0.129313 l -5.14e-4,1.38e-4 -1.42e-4,-5.03e-4 -5.16e-4,1.38e-4 1.41e-4,5.02e-4 1.41e-4,5.01e-4 1.42e-4,5.02e-4 c 3.36e-4,9.17e-4 9.34e-4,0.002 0.0017,0.0038 l -6.58e-4,-3.63e-4 -6.58e-4,-3.65e-4 -6.57e-4,-3.64e-4 c -4.54e-4,-1.44e-4 -0.0022,-5.61e-4 -0.003,-8.6e-4 l -5.16e-4,1.37e-4 c -0.0084,0.0012 -0.02004,0.0138 -0.03157,0.0316 z m 5.663377,-76.091053 c 0.212144,-0.06386 0.533975,-0.117949 0.714631,-0.120388 0.09036,-0.0012 0.205373,0.0074 0.317605,0.02319 0.112231,0.01576 0.221169,0.03808 0.301147,0.06317 0.164615,0.05165 0.377789,0.164062 0.490559,0.259118 0.109686,0.0923 0.237995,0.256576 0.285828,0.36492 0.04784,0.108348 0.0577,0.300326 0.02171,0.427232 -0.0383,0.135108 -0.173969,0.341449 -0.326399,0.498455 -0.143805,0.147176 -0.495987,0.423097 -0.782091,0.612913 -0.286157,0.189787 -0.76134,0.457315 -1.056258,0.594321 -0.294897,0.137024 -0.843846,0.338076 -1.220279,0.447147 -0.376426,0.109105 -0.722805,0.181118 -0.768988,0.159682 -0.04613,-0.02143 -0.06743,-0.127925 -0.04725,-0.23654 0.0202,-0.108641 0.09204,-0.425017 0.159114,-0.702459 0.06708,-0.277441 0.213708,-0.698874 0.325826,-0.937255 0.112187,-0.238348 0.320078,-0.566785 0.461551,-0.729151 0.141646,-0.16228 0.365235,-0.365614 0.49756,-0.451866 0.132264,-0.08629 0.413512,-0.208682 0.62574,-0.27249 z m 8.888211,1.492363 c -0.625161,0.161321 -1.536358,0.467904 -2.107561,0.708466 -0.553572,0.233129 -1.18121,0.521758 -1.394175,0.640718 -0.212986,0.118935 -0.53144,0.311894 -0.708507,0.429364 -0.177035,0.117492 -1.113798,0.900488 -2.080655,1.740435 -0.966855,0.839945 -1.856207,1.630578 -1.976369,1.756316 -0.120191,0.125705 -0.266811,0.332924 -0.327152,0.460369 -0.06029,0.127479 -0.106439,0.329148 -0.101569,0.448231 0.005,0.119066 0.05527,0.301122 0.112797,0.404031 0.05685,0.103062 0.191453,0.261489 0.299038,0.35277 0.107501,0.09125 0.31954,0.224174 0.471798,0.294856 0.152215,0.07066 0.530303,0.187116 0.839792,0.258777 0.309465,0.07168 0.886243,0.146858 1.281866,0.166824 0.39563,0.01996 0.987733,0.0052 1.315,-0.03236 0.327262,-0.03762 0.96583,-0.164985 1.419451,-0.283459 0.453648,-0.118419 1.101127,-0.324111 1.438785,-0.456859 0.33764,-0.132754 1.436721,-0.631682 2.442201,-1.108815 1.005479,-0.477133 2.098849,-0.979717 2.430093,-1.116374 0.331244,-0.136663 0.912232,-0.356846 1.291563,-0.489335 0.379329,-0.132492 1.12781,-0.344675 1.662487,-0.471732 0.534674,-0.127058 1.299265,-0.250494 1.698719,-0.274315 0.399453,-0.02381 1.03162,-0.01208 1.405879,0.02646 0.374243,0.03852 0.976082,0.135174 1.336944,0.214695 0.360864,0.07954 1.002925,0.254965 1.426614,0.389239 0.555375,0.176017 1.147432,0.42052 2.122385,0.876763 0.870517,0.407276 1.631277,0.801776 2.135257,1.107367 0.43059,0.261102 1.12495,0.709653 1.543441,0.996573 0.418494,0.286915 1.078332,0.770693 1.46639,1.075352 0.122893,0.09648 0.451132,0.366408 0.924306,0.759325 0.02864,-0.04964 0.05729,-0.09918 0.0862,-0.148623 -0.386083,-0.320542 -0.654015,-0.54083 -0.762554,-0.626107 -0.387992,-0.304844 -1.017935,-0.775084 -1.40017,-1.045015 C 71.865868,28.460999 71.2507,28.052831 70.881345,27.824221 70.511997,27.595613 69.766441,27.177247 69.224254,26.894612 68.681099,26.611454 67.813977,26.209368 67.293298,25.998638 66.773532,25.78828 66.004284,25.517261 65.583867,25.396826 65.16346,25.276378 64.488698,25.123961 64.08434,25.057761 c -0.404378,-0.06621 -1.029964,-0.129906 -1.390504,-0.141102 -0.360522,-0.01119 -0.888907,0.0051 -1.173632,0.03621 -0.284726,0.03097 -0.941187,0.159228 -1.45913,0.284328 -0.51794,0.125101 -1.232727,0.329499 -1.587888,0.455082 -0.35517,0.12554 -1.03009,0.391589 -1.500286,0.59081 -0.470197,0.199206 -1.611411,0.722018 -2.535937,1.161842 -0.924529,0.439825 -1.949379,0.899644 -2.277643,1.021812 -0.328286,0.122151 -0.95064,0.313027 -1.382732,0.423582 -0.432063,0.110579 -1.15632,0.223932 -1.609445,0.252675 -0.453123,0.02875 -1.038965,0.02979 -1.302469,0.0021 -0.263502,-0.0277 -0.666005,-0.09308 -0.894238,-0.145043 -0.228236,-0.05195 -0.573518,-0.168041 -0.767514,-0.258091 -0.194002,-0.09005 -0.42151,-0.238957 -0.504819,-0.331352 -0.08338,-0.09245 -0.18259,-0.261794 -0.221352,-0.376174 -0.05267,-0.155287 -0.03463,-0.285176 0.07245,-0.51219 0.07885,-0.167255 0.236591,-0.394552 0.349982,-0.50528 0.11338,-0.11072 0.951442,-0.850545 1.862217,-1.643921 0.910775,-0.793372 1.838079,-1.572981 2.06073,-1.732428 0.222719,-0.159408 0.67456,-0.42469 1.004345,-0.589651 0.329769,-0.164967 0.939893,-0.438265 1.355899,-0.607326 0.415988,-0.169081 1.230575,-0.43138 1.810272,-0.582846 0.5797,-0.151497 1.345065,-0.317903 1.701174,-0.369877 0.356132,-0.05194 0.915864,-0.120711 1.243833,-0.153061 0.327955,-0.03231 0.903946,-0.07144 1.279753,-0.0866 0.375804,-0.01517 1.268093,-0.01937 1.98301,-0.0093 0.7149,0.01007 1.642539,0.04662 2.061126,0.08098 0.418601,0.03438 1.08363,0.107407 1.478051,0.162522 0.394411,0.05512 0.963783,0.154035 1.264674,0.219939 0.300892,0.06589 0.819925,0.193152 1.154162,0.282292 0.484254,0.129174 0.89611,0.296082 2.026963,0.823468 1.184964,0.552685 1.540458,0.74307 2.154592,1.152363 0.404502,0.269573 1.004203,0.689655 1.332206,0.933705 0.328004,0.244049 0.88279,0.682006 1.232966,0.9731 0.350198,0.291095 0.991873,0.851811 1.426371,1.246177 0.282643,0.256537 0.669202,0.614352 1.014075,0.938156 0.02163,-0.02838 0.04313,-0.05674 0.06406,-0.08556 0.02631,-0.0048 0.05232,-0.01029 0.07866,-0.01606 -0.112945,-0.106703 -0.220996,-0.208503 -0.320694,-0.301782 -0.538161,-0.503525 -1.393081,-1.26534 -1.900149,-1.693652 -0.507067,-0.428312 -1.207873,-0.988023 -1.557085,-1.24369 -0.349208,-0.255667 -0.96352,-0.682156 -1.365478,-0.947483 -0.590483,-0.389775 -0.991077,-0.603502 -2.084281,-1.113407 -1.229998,-0.573783 -1.437548,-0.654203 -2.281672,-0.881218 -0.51069,-0.137382 -1.331728,-0.315929 -1.824308,-0.397553 -0.492444,-0.0816 -1.375632,-0.18462 -1.963479,-0.228336 l -0.0014,4e-4 c -0.587907,-0.04368 -1.63574,-0.08359 -2.329606,-0.08922 -0.694041,-0.0056 -1.727961,0.02007 -2.298316,0.0572 -0.570371,0.03713 -1.367748,0.115195 -1.770987,0.173326 -0.403263,0.05806 -1.229049,0.232997 -1.834866,0.389339 z m -10.000883,7.4916 c 0.03585,-0.01071 0.08508,-0.01705 0.138574,-0.01591 0.02661,6.3e-4 0.05645,0.0034 0.08814,0.0077 l 6.57e-4,3.64e-4 c 0.09557,0.01353 0.205441,0.04222 0.2756,0.07484 0.0936,0.04346 0.200665,0.130202 0.237857,0.192743 0.03711,0.06253 0.04295,0.167605 0.01203,0.233527 -0.03088,0.06591 -0.08396,0.127307 -0.117501,0.135936 -0.03357,0.0087 -0.123193,-0.01334 -0.199492,-0.04875 -0.07629,-0.0354 -0.219831,-0.156598 -0.318769,-0.269319 -0.09889,-0.112698 -0.178259,-0.233225 -0.176418,-0.267898 10e-4,-0.01735 0.02347,-0.03265 0.05932,-0.04331 z m 5.109756,2.807997 c -0.13994,0.03041 -0.332725,0.104532 -0.42805,0.165326 -0.0974,0.06216 -0.238634,0.251069 -0.32278,0.430625 -0.109717,0.234117 -0.139716,0.41784 -0.112747,0.687942 0.02018,0.202677 0.136677,0.560184 0.259465,0.794722 0.122786,0.234535 0.381137,0.692175 0.574048,1.0177 0.192919,0.325529 0.505976,0.832512 0.695526,1.126067 0.189529,0.293551 0.667729,0.942706 1.062995,1.44226 0.395251,0.499548 1.06188,1.300406 1.48091,1.780059 0.419029,0.47965 1.256934,1.367697 1.862524,1.973309 0.605574,0.605605 1.319056,1.284751 1.58529,1.509033 0.42094,0.354617 0.591874,0.457993 1.308479,0.79443 0.748273,0.351276 0.868504,0.391277 1.306136,0.435912 0.265103,0.02695 0.686712,0.04482 0.937063,0.03926 0.250338,-0.0055 0.751432,-0.07538 1.114051,-0.155137 0.362644,-0.07969 0.937013,-0.243611 1.276295,-0.364469 0.339264,-0.120862 1.647408,-0.662748 2.906786,-1.203536 1.259378,-0.540785 2.697155,-1.135522 3.195032,-1.321891 0.497875,-0.186361 1.335173,-0.455631 1.860248,-0.598329 0.294582,-0.08009 0.641308,-0.165519 0.945382,-0.234207 0.03275,-0.06641 0.06558,-0.132632 0.09866,-0.198859 -0.318597,0.06431 -0.642591,0.137071 -0.911648,0.206338 -0.604651,0.155644 -1.60845,0.477145 -2.231188,0.714456 -0.622738,0.23732 -2.008627,0.811329 -3.079855,1.276093 -1.071227,0.46476 -2.271204,0.96638 -2.666387,1.114109 -0.395168,0.147722 -0.997526,0.331536 -1.338569,0.409118 -0.341065,0.07756 -0.794493,0.15569 -1.007653,0.172616 -0.213166,0.01691 -0.606023,0.01466 -0.872807,-0.0041 -0.266803,-0.01875 -0.69552,-0.09996 -0.952678,-0.181233 -0.321903,-0.101741 -0.6099,-0.235194 -0.925186,-0.427989 -0.251883,-0.153986 -0.62728,-0.420282 -0.83441,-0.591854 C 55.642465,42.612785 55.128176,42.13453 54.707314,41.721834 54.286438,41.30911 53.649381,40.661256 53.291244,40.281989 52.933109,39.90272 52.359642,39.263318 52.017405,38.86088 51.67517,38.458449 51.079948,37.721559 50.694178,37.223213 50.308411,36.724867 49.872113,36.11153 49.724481,35.860159 49.576867,35.608802 49.269304,35.093183 49.04136,34.715148 c -0.227951,-0.378046 -0.473784,-0.839892 -0.546106,-1.026767 -0.07232,-0.186871 -0.1185,-0.48206 -0.102635,-0.655336 0.01573,-0.173281 0.04706,-0.352591 0.06936,-0.399202 0.02213,-0.04666 0.111648,-0.160443 0.199521,-0.252169 0.08789,-0.09172 0.290052,-0.198721 0.4492,-0.237836 0.161696,-0.03976 0.453384,-0.03737 0.660576,0.0045 0.203914,0.04129 0.635488,0.140082 0.959669,0.219813 0.324184,0.07971 0.851485,0.158563 1.171282,0.175809 0.319802,0.01725 0.849571,-0.0063 1.177268,-0.05282 0.327682,-0.04658 0.887174,-0.178891 1.243415,-0.294231 0.356261,-0.115312 1.103139,-0.435556 1.659925,-0.711015 0.556787,-0.275456 1.390618,-0.690291 1.852746,-0.922032 0.462113,-0.231751 1.130586,-0.504179 1.48568,-0.60525 0.35508,-0.101121 0.942459,-0.218851 1.305648,-0.262287 0.363183,-0.04347 1.014704,-0.07747 1.447489,-0.07577 0.432799,0.0017 1.150346,0.0398 1.594032,0.08415 0.443697,0.04442 1.224893,0.152989 1.736117,0.242027 0.511229,0.08902 1.17499,0.216166 1.475768,0.282306 0.300777,0.06615 0.853816,0.199978 1.228333,0.297573 0.374511,0.09762 1.104522,0.315865 1.622274,0.485378 0.517752,0.169513 1.498109,0.548402 2.179045,0.841707 0.511683,0.220405 1.042035,0.467321 1.496098,0.694807 0.01596,-0.05429 0.03265,-0.10841 0.05021,-0.162216 -0.04033,-0.02102 -0.07964,-0.04142 -0.117528,-0.06089 -0.535316,-0.27495 -1.367303,-0.647369 -2.028013,-0.907849 -0.616049,-0.24296 -1.573066,-0.580336 -2.127098,-0.749861 -0.554015,-0.16951 -1.470539,-0.414984 -2.036732,-0.545305 -0.566194,-0.130324 -1.458713,-0.306274 -1.983346,-0.391288 -0.524637,-0.08501 -1.345855,-0.187479 -1.824507,-0.227095 -0.478649,-0.0396 -1.207,-0.06446 -1.618806,-0.05598 -0.411788,0.0085 -1.031459,0.05548 -1.377002,0.105515 -0.345518,0.05009 -0.923053,0.178751 -1.282917,0.285894 -0.412395,0.122795 -1.145259,0.450986 -1.983412,0.887298 -0.731374,0.380726 -1.597839,0.806533 -1.925225,0.946207 -0.327389,0.139663 -0.771746,0.315522 -0.987296,0.390436 -0.21551,0.07493 -0.684461,0.18078 -1.042,0.23569 -0.357524,0.05501 -0.924827,0.08441 -1.260785,0.06537 -0.336576,-0.01907 -0.968339,-0.12386 -1.407041,-0.23322 -0.437931,-0.109183 -0.872874,-0.200712 -0.966307,-0.204022 -0.09336,-0.0033 -0.283714,0.01891 -0.423603,0.04928 z m -16.246643,9.297744 0.310023,0.143847 c 0.170488,0.07915 0.663569,0.358086 1.096208,0.619674 0.66919,0.404635 0.920989,0.526856 1.687479,0.81905 0.495545,0.188901 1.552605,0.526963 2.349229,0.751047 0.796634,0.224075 1.747431,0.502736 2.113046,0.619331 0.3656,0.116574 0.956254,0.327279 1.31129,0.467974 0.40741,0.161443 0.73662,0.325147 0.891954,0.443857 0.135383,0.103492 0.244261,0.224232 0.243116,0.268455 -3.81e-4,0.04456 -0.04648,0.108865 -0.09915,0.143986 -0.05358,0.03475 -0.287976,0.06226 -0.521002,0.06176 -0.233024,-4.65e-4 -0.738019,-0.03829 -1.122055,-0.08377 -0.384046,-0.04537 -1.06823,-0.167892 -1.520689,-0.272489 -0.452485,-0.104616 -1.123895,-0.282179 -1.491724,-0.393997 -0.367851,-0.111806 -1.165157,-0.378619 -1.772407,-0.593114 -0.607261,-0.214515 -1.449463,-0.54712 -1.871282,-0.73932 C 33.892636,43.289329 33.575254,43.112951 33.397581,42.96085 33.255943,42.839637 33.0649,42.614244 32.97251,42.459948 32.8802,42.305683 32.791091,42.064396 32.774961,41.92428 c -0.01615,-0.140107 -0.01311,-0.34333 0.0067,-0.452082 z m -8.688897,6.047732 c 0.03284,-0.01011 0.0677,-0.0171 0.103815,-0.02121 0.04507,-0.0051 0.08796,-0.0067 0.132118,-0.0034 0.132483,0.01 0.276375,0.06261 0.526668,0.182625 0.23535,0.112786 0.569355,0.316816 0.742208,0.453576 0.172834,0.136767 0.369739,0.336081 0.437095,0.443234 0.08575,0.136353 0.09902,0.245631 0.04371,0.363668 -0.04348,0.09278 -0.18701,0.243127 -0.318545,0.333506 -0.1317,0.09032 -0.3181,0.159081 -0.414182,0.153542 -0.09604,-0.0054 -0.292098,-0.06296 -0.436262,-0.127452 -0.192007,-0.08579 -0.353764,-0.229065 -0.60405,-0.537858 -0.187941,-0.231883 -0.385002,-0.535597 -0.437397,-0.674492 -0.06653,-0.176486 -0.06627,-0.299309 0.0012,-0.406918 0.04472,-0.07238 0.125118,-0.128468 0.223608,-0.158833 z m -1.732488,5.633789 c 0.03727,-0.01091 0.07345,-0.01854 0.105954,-0.02344 0.06454,-0.0091 0.126486,-0.0099 0.191967,-0.0016 l 6.58e-4,3.65e-4 c 0.109139,0.0138 0.225907,0.05242 0.377253,0.12269 0.200969,0.0933 0.423868,0.250901 0.560668,0.395735 0.124795,0.132165 0.40653,0.579179 0.625515,0.993737 0.235328,0.445492 0.520115,0.879618 0.696241,1.061703 0.268401,0.277487 0.361344,0.335494 0.935186,0.57955 0.350386,0.149046 0.846315,0.364694 1.102169,0.479497 0.44103,0.197835 0.46271,0.216027 0.426699,0.347322 -0.02119,0.07601 -0.0774,0.149325 -0.127925,0.161902 -0.04989,0.01283 -0.198871,-0.0039 -0.331411,-0.03676 -0.132441,-0.03278 -0.629239,-0.23663 -1.102979,-0.452858 -0.473756,-0.216196 -1.176524,-0.569316 -1.562021,-0.785086 -0.385489,-0.215785 -0.930736,-0.544988 -1.212576,-0.731557 -0.281837,-0.186568 -0.643993,-0.458546 -0.803566,-0.60439 -0.212222,-0.193956 -0.316481,-0.356292 -0.391154,-0.604851 -0.05611,-0.186903 -0.07352,-0.40288 -0.03758,-0.479624 0.03598,-0.07674 0.143689,-0.200783 0.239966,-0.275892 0.07221,-0.05633 0.195119,-0.113798 0.306925,-0.146523 z m -0.563584,1.325261 5.16e-4,-1.38e-4 5.15e-4,-1.37e-4 5.15e-4,-1.38e-4 c 3.72e-4,-8.4e-5 9.99e-4,-2.64e-4 9.99e-4,-2.65e-4 l 5.14e-4,-1.38e-4 5.17e-4,-1.37e-4 0.0011,2.35e-4 c 0.0154,0.0012 0.04028,0.02434 0.0633,0.06132 0.03159,0.05063 0.187948,0.201575 0.347936,0.335421 0.160005,0.13385 0.525965,0.397003 0.812449,0.584765 0.286463,0.187766 0.83921,0.510284 1.228974,0.716941 l 0.709275,0.376075 -0.618769,-0.243817 c -0.402425,-0.158253 -0.750689,-0.254214 -0.995858,-0.275417 -0.207343,-0.01788 -0.468047,-0.0125 -0.578708,0.01244 -0.110687,0.02491 -0.299954,0.128177 -0.420976,0.229772 -0.158459,0.132972 -0.258983,0.292172 -0.360078,0.567828 -0.107827,0.293968 -0.1291,0.52441 -0.09115,0.992796 0.03782,0.46737 0.02447,0.612026 -0.05651,0.617948 -0.05817,0.0041 -0.247534,-0.07608 -0.42071,-0.178515 -0.173212,-0.102383 -0.41415,-0.284065 -0.53479,-0.40425 -0.120605,-0.120154 -0.271175,-0.349376 -0.335357,-0.509178 -0.06424,-0.159845 -0.110958,-0.397885 -0.103587,-0.528897 0.0068,-0.131076 0.07343,-0.327021 0.147408,-0.435105 0.08713,-0.127235 0.286255,-0.257444 0.564969,-0.370074 0.23674,-0.09569 0.490675,-0.207241 0.563395,-0.247778 0.07269,-0.04053 0.180259,-0.173577 0.238863,-0.29555 0.08802,-0.183318 0.08029,-0.285389 -0.04275,-0.590412 -0.08179,-0.202966 -0.140021,-0.38664 -0.12998,-0.408079 l -1.42e-4,-5.05e-4 8.57e-4,-7.68e-4 -1.42e-4,-5.02e-4 5.16e-4,-1.37e-4 5.15e-4,-1.37e-4 5.17e-4,-1.38e-4 3.74e-4,-6.38e-4 3.74e-4,-6.39e-4 3.74e-4,-6.4e-4 5.17e-4,-1.37e-4 3.74e-4,-6.39e-4 5.16e-4,-1.38e-4 5.15e-4,-1.38e-4 8.57e-4,-7.67e-4 5.16e-4,-1.37e-4 3.74e-4,-6.39e-4 5.15e-4,-1.38e-4 z m 0.951754,1.775512 c 0.120275,-0.03697 0.329868,-0.06487 0.50069,-0.06497 0.08726,-4.9e-5 0.154954,3.75e-4 0.23331,0.01331 l 6.57e-4,3.64e-4 c 0.23506,0.03881 0.566811,0.187482 1.818532,0.752841 1.438822,0.649843 1.703813,0.784308 1.740895,0.884623 0.03669,0.09931 -0.03056,0.12317 -0.417424,0.147937 -0.253597,0.01618 -1.020661,0.161611 -1.703956,0.322625 -0.683275,0.161034 -1.357735,0.302978 -1.500174,0.315767 -0.142518,0.01264 -0.434433,0.01709 -0.648316,0.0095 -0.213863,-0.0076 -0.439049,-0.03684 -0.500577,-0.06447 -0.07503,-0.0337 -0.132025,-0.239754 -0.168632,-0.628037 l 9.97e-4,-2.67e-4 c -0.03085,-0.317897 -0.02616,-0.718406 0.01075,-0.890477 0.04206,-0.196045 0.12862,-0.385385 0.231364,-0.507095 0.09074,-0.106565 0.250843,-0.230245 0.356098,-0.275032 0.01315,-0.0056 0.0286,-0.01127 0.0458,-0.01649 z M 67.200795,45.586866 c -0.175465,0.04668 -0.334314,0.09631 -0.434133,0.137834 -0.199605,0.08298 -0.519966,0.256046 -0.711613,0.384897 -0.191593,0.128886 -0.62749,0.467133 -0.968817,0.751123 -0.341347,0.283984 -0.799272,0.606386 -1.017499,0.716107 -0.218284,0.109694 -0.554869,0.231377 -0.748252,0.270632 -0.193463,0.03917 -0.751995,0.101118 -1.240945,0.137731 -0.488937,0.03659 -1.118445,0.134973 -1.399416,0.2188 -0.315751,0.09419 -0.62476,0.245226 -0.808921,0.395736 -0.246444,0.201313 -0.346391,0.347023 -0.577818,0.839952 -0.223482,0.476046 -0.282006,0.677115 -0.291603,0.997696 -0.0065,0.220841 0.02489,0.602998 0.07043,0.849963 0.04565,0.24698 0.203158,0.703709 0.350318,1.014786 0.147126,0.311074 0.385118,0.739802 0.528936,0.952073 0.143821,0.212272 0.481004,0.651309 0.749128,0.975886 0.261013,0.315966 0.171868,-0.05694 -0.267369,-0.631915 -0.256707,-0.34899 -0.578151,-0.837802 -0.713814,-1.086679 -0.135678,-0.248865 -0.309573,-0.701351 -0.386049,-1.005802 -0.07647,-0.30446 -0.140297,-0.726726 -0.141883,-0.938227 -0.0025,-0.31785 0.04682,-0.492902 0.284833,-1.009912 0.261802,-0.56727 0.3177,-0.646832 0.60829,-0.85185 0.175946,-0.124349 0.502519,-0.28056 0.725966,-0.347739 0.223389,-0.06717 0.859629,-0.160279 1.413971,-0.206502 0.554354,-0.04621 1.159054,-0.124941 1.343987,-0.175444 0.184987,-0.05046 0.508036,-0.186439 0.717303,-0.30175 0.209227,-0.115346 0.713908,-0.484412 1.121721,-0.820462 0.44622,-0.367698 0.945002,-0.709661 1.252386,-0.858528 0.280919,-0.136063 0.738064,-0.289006 1.015833,-0.34034 0.227857,-0.0421 0.763015,-0.104661 1.290031,-0.152434 0.0088,-0.06241 0.01847,-0.124731 0.02888,-0.186729 -0.514147,0.04908 -1.016892,0.108569 -1.259828,0.151394 -0.166503,0.02936 -0.358594,0.07303 -0.534057,0.119713 z" /><g
       id="g10"
       transform="matrix(1.7183109,0.01087333,0.48524787,1.7858671,-66.708112,-68.663245)"
       style="fill:#000000;fill-opacity:1"><path
         d="m 43.516175,85.111926 q -2.584641,3.069675 -3.495966,4.899675 -0.866545,1.829998 -0.265482,2.65645 0.618904,0.767418 2.437084,0.82645 l -0.580729,1.180644 q -1.218187,-0.118064 -2.561617,-0.118064 -1.325588,-0.05904 -2.489894,-0.05904 -1.119525,0 -1.898645,0.05904 -0.761277,0 -1.513456,0.118064 l 0.580729,-1.180644 q 0.680458,-0.177096 1.512744,-0.708386 0.850127,-0.590323 1.977328,-1.652903 1.127199,-1.062579 2.540214,-2.774514 L 69.870873,52.585174 q 0.179124,0 0.313468,0 0.179123,0 0.358247,0 L 61.111711,89.71644 q -0.50794,2.125159 -0.086,2.951611 0.484561,0.767418 1.138435,0.82645 l -0.535949,1.180644 q -0.859938,-0.118064 -2.203368,-0.118064 -1.325588,-0.05904 -2.624237,-0.05904 -1.612117,0 -3.062952,0.05904 -1.432993,0 -2.364295,0.118064 l 0.535946,-1.180644 q 2.185171,-0.118064 3.34841,-1.003547 1.181079,-0.944516 2.001418,-3.955159 l 7.604469,-29.161915 0.349149,-0.118064 z m 5.830473,-7.438059 h 13.076056 l -0.715072,1.180644 H 48.183765 Z"
         id="text1"
         style="font-style:italic;font-size:51.4152px;font-family:'Playfair Display';-inkscape-font-specification:'Playfair Display, Italic';fill:#000000;fill-opacity:1;stroke:#c8008a;stroke-width:0.685042;stroke-linecap:round;stroke-linejoin:round;stroke-dasharray:none;stroke-opacity:1;paint-order:stroke fill markers"
         aria-label="A" /><path
         d="m 81.985508,57.112542 q -0.46614,1.339764 -1.27808,3.960951 -0.770723,2.58199 -1.642399,6.941131 l -0.757272,-0.400865 q 0.160706,-0.769208 0.249045,-1.637743 0.126207,-0.848488 0.169957,-1.618585 0.124514,-2.191821 -0.342473,-4.269619 -0.425765,-2.116994 -1.538962,-3.804631 -1.109828,-1.746865 -3.040868,-2.769068 -2.271815,-1.202596 -3.890685,-0.167932 -1.618868,1.03466 -1.837615,4.885157 -0.127886,2.25106 0.442606,4.566702 0.611718,2.276453 1.570938,4.614814 1.00045,2.299169 2.111124,4.717703 1.151903,2.379339 2.107757,4.776938 0.99372,2.417644 1.557478,4.851765 0.604984,2.394926 0.46364,4.882938 -0.175,3.080397 -1.170376,4.811224 -0.995377,1.730828 -2.477096,2.410953 -1.478356,0.620887 -3.219235,0.370559 -1.706381,-0.171044 -3.372377,-1.052946 -1.514544,-0.80173 -2.509937,-1.816802 -0.998759,-0.955827 -1.643284,-1.968233 -0.644526,-1.012397 -1.068601,-1.78606 -0.386211,-0.75362 -0.75475,-1.131774 -0.330677,-0.358101 -0.557858,-0.478361 -0.49221,-0.260489 -0.880114,0.388391 -0.34666,0.609746 -0.854021,1.988716 L 57.064779,87.977 q 0.414809,-1.12286 0.891039,-2.640347 0.47623,-1.517476 1.082031,-3.942688 0.60917,-2.484446 1.409331,-6.271247 l 0.75727,0.400864 q -0.222125,1.163831 -0.403022,2.288471 -0.177528,1.0654 -0.210344,2.32945 -0.115253,4.088345 1.230179,7.18032 1.345432,3.091986 4.450244,4.73553 2.461133,1.30281 4.114498,0.347425 1.653365,-0.955376 1.872113,-4.805873 0.141343,-2.488012 -0.39128,-4.783614 -0.494738,-2.275545 -1.422849,-4.475401 -0.886861,-2.239039 -1.931903,-4.43977 -1.007179,-2.180687 -1.931901,-4.439771 -0.883492,-2.298274 -1.406022,-4.771593 -0.484668,-2.453275 -0.32986,-5.178239 0.161535,-2.843444 1.002095,-4.595203 0.843926,-1.811 2.098464,-2.611382 1.295766,-0.839578 2.81283,-0.768753 1.520428,0.01159 3.072833,0.833356 1.59027,0.841818 2.692527,2.035498 1.102252,1.193679 2.088391,3.058131 0.424078,0.773667 0.710156,1.230204 0.28945,0.397299 0.47877,0.497516 0.53008,0.280562 1.42786,-2.478209 z"
         id="text2"
         style="font-style:italic;font-size:51.5912px;font-family:'Playfair Display';-inkscape-font-specification:'Playfair Display, Italic';fill:#c8008a;fill-opacity:1;stroke:#000000;stroke-width:0.190179;stroke-dasharray:none;stroke-opacity:1"
         aria-label="S" /></g><ellipse
       style="font-variation-settings:normal;opacity:1;vector-effect:none;fill:#e300c3;fill-opacity:0;fill-rule:evenodd;stroke:#000000;stroke-width:0.742249;stroke-linecap:butt;stroke-linejoin:miter;stroke-miterlimit:4;stroke-dasharray:none;stroke-dashoffset:0;stroke-opacity:1;-inkscape-stroke:none;stop-color:#000000;stop-opacity:1"
       id="path11"
       cx="66.278633"
       cy="65.600601"
       rx="59.937634"
       ry="58.581547" /></g><g
     inkscape:groupmode="layer"
     id="layer2"
     inkscape:label="Layer 2" /></svg>
